<svg id="Layer_1" data-name="Layer 1" xmlns="http://www.w3.org/2000/svg" viewBox="0 0 1762.69 360.18"><defs><style>.cls-1{fill:#fff;}</style></defs><ellipse class="cls-1" cx="178.42" cy="349.23" rx="11.15" ry="10.95"/><ellipse class="cls-1" cx="89.36" cy="279.97" rx="13.59" ry="13.35"/><ellipse class="cls-1" cx="281.7" cy="315.09" rx="10.07" ry="9.9"/><ellipse class="cls-1" cx="270.41" cy="278.43" rx="7.85" ry="7.71"/><ellipse class="cls-1" cx="259.66" cy="192.56" rx="8.87" ry="8.72"/><ellipse class="cls-1" cx="8.87" cy="237.82" rx="8.87" ry="8.72"/><ellipse class="cls-1" cx="98.98" cy="333.92" rx="8.31" ry="8.16"/><ellipse class="cls-1" cx="149.5" cy="223.9" rx="12.54" ry="12.32"/><ellipse class="cls-1" cx="159.92" cy="121.95" rx="14.43" ry="14.17"/><ellipse class="cls-1" cx="127.5" cy="121.65" rx="8.22" ry="8.07"/><ellipse class="cls-1" cx="65.25" cy="148.75" rx="9.15" ry="8.98"/><ellipse class="cls-1" cx="206.59" cy="57.24" rx="8.41" ry="8.26"/><ellipse class="cls-1" cx="287.44" cy="96" rx="8.8" ry="8.64"/><ellipse class="cls-1" cx="286.99" cy="50.81" rx="8.12" ry="7.97"/><ellipse class="cls-1" cx="339.67" cy="130.42" rx="15.42" ry="15.14"/><ellipse class="cls-1" cx="195.36" cy="10.87" rx="11.07" ry="10.87"/><ellipse class="cls-1" cx="93.47" cy="29.99" rx="14.47" ry="14.21"/><ellipse class="cls-1" cx="347.11" cy="192.83" rx="8.47" ry="8.32"/><ellipse class="cls-1" cx="11.42" cy="121.48" rx="7.64" ry="7.51"/><path class="cls-1" d="M105.27,45.41l42.59,61.32c.45-.32.91-.64,1.37-.94L106.54,44.35C106.13,44.72,105.71,45.08,105.27,45.41Z"/><path class="cls-1" d="M152.14,207.22a9.52,9.52,0,0,0-2-.19L157,140.79a9.18,9.18,0,0,0,2,.19Z"/><path class="cls-1" d="M152.29,207.44l-.19,0a8.92,8.92,0,0,0-2-.2h-.2l0-.19,6.85-66.44.19,0a8.92,8.92,0,0,0,2,.2h.2l0,.19Zm-2-.59A9.14,9.14,0,0,1,152,207l6.79-65.85a9.17,9.17,0,0,1-1.66-.16Z"/><path class="cls-1" d="M100.58,48l21.75,61.54a9.76,9.76,0,0,1,1.58-.52L102.11,47.3A8.8,8.8,0,0,1,100.58,48Z"/><path class="cls-1" d="M77.26,141.11a9.19,9.19,0,0,1,.85,1.42l37.35-15.09a13.37,13.37,0,0,1-.66-1.55Z"/><path class="cls-1" d="M132.05,227.86a11.74,11.74,0,0,1-.29-1.57l-109,9.43a13.84,13.84,0,0,1,.18,1.62Z"/><path class="cls-1" d="M277.92,106a11.58,11.58,0,0,1-1.16-1.17l-60,56.3-.12-.08-40.3-28.53-.11.15c-.29.39-.56.75-.87,1.14l40.21,28.46-.16.14-53.1,49.85a12.8,12.8,0,0,1,1.07,1.22l53.55-50.24.12.08,30.76,21.78a13.73,13.73,0,0,1,1-1.3l-30.67-21.69.16-.15Z"/><path class="cls-1" d="M197.67,67.31l-29.19,37.33a10.81,10.81,0,0,1,1.48.77l29-37.08A11.89,11.89,0,0,1,197.67,67.31Z"/><path class="cls-1" d="M178.56,115.89c.19.58.34,1.07.45,1.53l94.88-18a10.26,10.26,0,0,1-.32-1.58Z"/><path class="cls-1" d="M165.07,232.32l93.18,41.59a11.43,11.43,0,0,1,.67-1.5l-93.14-41.54C165.56,231.36,165.32,231.85,165.07,232.32Z"/><path class="cls-1" d="M243.69,53.39l-35.58-32.6A12.73,12.73,0,0,1,207,22l34.48,31.65-21.44,1.74A13.83,13.83,0,0,1,220.2,57l22.92-1.82.06.06,34.14,31.32a11.76,11.76,0,0,1,1.23-1.1l-33.2-30.48.4,0,28.06-2.25a13.83,13.83,0,0,1-.12-1.57l-29.94,2.36Z"/><path class="cls-1" d="M166.46,219.57a13.07,13.07,0,0,1,.37,1.62l79.66-23.79a13.19,13.19,0,0,1-.5-1.63Z"/><path class="cls-1" d="M274.63,90.47a8.73,8.73,0,0,1,.74-1.41l-55.74-28a12.4,12.4,0,0,1-.57,1.54Z"/><path class="cls-1" d="M269.25,306.39a12.93,12.93,0,0,1,1-1.25l-17.54-11.75.19-.15,7.87-6.18a10.74,10.74,0,0,1-1.07-1.27l-8.43,6.67-.11-.07L232.4,279.85l25-.4c0-.34,0-.68,0-1a5.33,5.33,0,0,1,0-.56l-27.39.39,0,0-66.09-44c-.32.43-.66.88-1,1.3l64.33,42.83h-.57l-118.44,1.92a14.36,14.36,0,0,1-.12,1.62l121.47-2,.05,0,20.37,13.54-.19.15-58.27,45.93a14.24,14.24,0,0,1,.92,1.37l59-46.47.11.07Z"/><path class="cls-1" d="M91.56,49.18a15.29,15.29,0,0,1-1.64-.2L51.27,137.57l-.16-.07L23.39,126a11.23,11.23,0,0,1-.67,1.5l27.89,11.53-.07.16L13.33,224.67c.62.24,1.09.44,1.53.65Z"/><path class="cls-1" d="M162.15,348.4a8.69,8.69,0,0,1,.16-1.61l-50-10.82a12.64,12.64,0,0,1-.32,1.58Z"/><path class="cls-1" d="M97.39,320.73,93.24,298c-.54.12-1.08.2-1.61.28L95.78,321A13.49,13.49,0,0,1,97.39,320.73Z"/><path class="cls-1" d="M20.12,112.24,80.53,44.5a12.29,12.29,0,0,1-1.15-1.13L18.87,111.19l.13.1A9.89,9.89,0,0,1,20.12,112.24Z"/><path class="cls-1" d="M289.5,302.19l51.61-97.3a12.32,12.32,0,0,1-1.45-.81L288,301.46A11.57,11.57,0,0,1,289.5,302.19Z"/><path class="cls-1" d="M286,300.74a8.36,8.36,0,0,1,1.58.52l19-61.23,32.27-36.56a6.11,6.11,0,0,1-1.27-1.06L307.72,236.3l.25-.79L334.46,150l-.42-.11c-.39-.11-.78-.22-1.15-.36L305,239.33l-26,29.49c.41.36.78.73,1.16,1.13l23.7-26.89-.25.79Z"/><path class="cls-1" d="M179.61,14.78a12.05,12.05,0,0,1-.32-1.63l-66.58,13c.12.53.2,1.06.28,1.58Z"/><path class="cls-1" d="M210.54,16.58a12.2,12.2,0,0,1-.7,1.5l64.67,28.19a12,12,0,0,1,.67-1.5Z"/><path class="cls-1" d="M194,344.4a13.09,13.09,0,0,1,.43,1.57l73.17-25.15a8,8,0,0,1-.54-1.59Z"/><path class="cls-1" d="M193.19,55a10.6,10.6,0,0,1,.38-1.57l-81-18.75a11.76,11.76,0,0,1-.44,1.54Z"/><path class="cls-1" d="M21.41,244.13a11.42,11.42,0,0,1-.87,1.43L72,273a14.26,14.26,0,0,1,.66-1.44Z"/><path class="cls-1" d="M8.88,224c.34,0,.68,0,1,0l1.4-89.92a11.94,11.94,0,0,1-1.7-.12L8.26,224C8.47,224,8.69,224,8.88,224Z"/><path class="cls-1" d="M341.15,150.61l3.27,29a8.47,8.47,0,0,1,1.65-.21l-3.37-29C342.21,150.53,341.67,150.57,341.15,150.61Z"/><path class="cls-1" d="M279.24,300.32l-3.67-10.11a13.13,13.13,0,0,1-1.57.53l3.64,9.91A9,9,0,0,1,279.24,300.32Z"/><path class="cls-1" d="M135.87,235.48l-33,31.68a13.57,13.57,0,0,1,1.12,1.26l33-31.77A11.36,11.36,0,0,1,135.87,235.48Z"/><path class="cls-1" d="M90.45,323.66,19,247.41a10,10,0,0,1-1.19,1.09l71.48,76.25A7.91,7.91,0,0,1,90.45,323.66Z"/><path class="cls-1" d="M117.45,130.3,83.3,163.45l-6.85-6a7.32,7.32,0,0,1-1.07,1.21l6.77,5.91-.14.13L17.82,227.13c.41.36.81.72,1.2,1.09l64.37-62.59,8.51,7.45-.17.13L19.44,228.68a14.35,14.35,0,0,1,1,1.26l72.73-55.77.11.1,43.37,37.83c.37-.39.75-.73,1.15-1.08L94.46,173.16l.17-.13L145,134.4c-.31-.38-.65-.8-1-1.25L93.22,172.07l-.11-.1-8.57-7.47.14-.13,33.87-32.94A8.52,8.52,0,0,1,117.45,130.3Z"/><path class="cls-1" d="M280.62,177.31l.06,0L324,143.57c-.35-.39-.68-.79-1-1.25l-42.18,32.77,0-.41,6-64.92a12.62,12.62,0,0,1-1.66-.16l-6.16,66.87-.06,0-8.86,6.87a7.4,7.4,0,0,1,1,1.26l7.7-5.95,0,.41-8,86.5a8.76,8.76,0,0,1,1.6.16Z"/><path class="cls-1" d="M322.13,119.84c.3-.45.59-.89.91-1.33L299.47,103a8.55,8.55,0,0,1-.91,1.33Z"/><path class="cls-1" d="M294.77,61.39a12.42,12.42,0,0,1-1.23.81l34.21,51.72a14,14,0,0,1,1.41-.9L294.89,61.3Z"/><path class="cls-1" d="M164.42,341a6.91,6.91,0,0,1,.91-1.33l-61.44-48c-.33.4-.7.81-1.11,1.22Z"/><path class="cls-1" d="M433.08,118.59V51.79H411V44.48H464.1v7.31H442v66.8Z"/><path class="cls-1" d="M474.47,118.59V42.37h8.89V75.08a18.71,18.71,0,0,1,7.52-7.57,21.5,21.5,0,0,1,10.59-2.7q9.11,0,14.61,5.67t5.5,17.41v30.7H512.8V88.84q0-16.41-13.24-16.41A15.23,15.23,0,0,0,488,77.36q-4.65,4.92-4.66,14v27.21Z"/><path class="cls-1" d="M558.64,119.86a25.64,25.64,0,0,1-13.34-3.44,24.35,24.35,0,0,1-9.16-9.58,30,30,0,0,1-3.33-14.5,30.36,30.36,0,0,1,3.28-14.45,23.89,23.89,0,0,1,9.15-9.64,26.49,26.49,0,0,1,13.61-3.44A24.58,24.58,0,0,1,572,68.25a23.34,23.34,0,0,1,8.52,9,25.46,25.46,0,0,1,3,12.07c0,.78,0,1.56-.06,2.33s-.05,1.66-.05,2.65H541.59a20.57,20.57,0,0,0,2.81,10,16.47,16.47,0,0,0,14.24,8,15.94,15.94,0,0,0,9.21-2.54,14.57,14.57,0,0,0,5.4-6.89H582a23.69,23.69,0,0,1-8.1,12.13Q568,119.87,558.64,119.86Zm0-47.53a17.79,17.79,0,0,0-11.28,3.86q-4.92,3.87-5.66,11.28h33q-.32-7.09-4.87-11.12A16.36,16.36,0,0,0,558.64,72.33Z"/><path class="cls-1" d="M411.06,248.89,446.51,152h19.93l35.44,96.91H483.06l-7.76-22.42H437.51l-7.89,22.42Zm31.29-36.27h28.11l-14.12-40.29Z"/><path class="cls-1" d="M514.34,248.89V152h17.72v96.91Z"/><path class="cls-1" d="M583.84,248.89V152h63.27v14.26H601.56v26.58H643v13.85h-41.4v28h45.55v14.26Z"/><path class="cls-1" d="M695,250.56a32.33,32.33,0,0,1-17.31-4.71,33.73,33.73,0,0,1-12-12.88,38.19,38.19,0,0,1-4.43-18.55,37.81,37.81,0,0,1,4.43-18.48,33.33,33.33,0,0,1,12-12.74A32.65,32.65,0,0,1,695,178.56a30,30,0,0,1,13.57,2.91,24.49,24.49,0,0,1,9.41,8.17V149.21h17.72v99.68H719.93L718,239.06a31.23,31.23,0,0,1-8.79,8Q703.72,250.56,695,250.56Zm3.74-15.51a18.51,18.51,0,0,0,14-5.75q5.48-5.73,5.47-14.74t-5.47-14.74a20,20,0,0,0-28-.07q-5.55,5.67-5.54,14.67t5.54,14.81A18.47,18.47,0,0,0,698.75,235.05Z"/><path class="cls-1" d="M779.46,250.56q-12.87,0-19.87-8t-7-23.54V180.23h17.58v37.1q0,8.86,3.6,13.57t11.36,4.7a15.63,15.63,0,0,0,12.11-5.26q4.79-5.25,4.78-14.67V180.23h17.72v68.66H804.1l-1.38-11.63a24.07,24.07,0,0,1-9.21,9.7A26.85,26.85,0,0,1,779.46,250.56Z"/><path class="cls-1" d="M871.53,250.56A37,37,0,0,1,853,246a33.25,33.25,0,0,1-12.66-12.74,40,40,0,0,1,0-37.38A33.25,33.25,0,0,1,853,183.13a37,37,0,0,1,18.56-4.57q13.14,0,22.15,6.86t11.49,18.89H886.48a13.74,13.74,0,0,0-5.47-7.82,17.15,17.15,0,0,0-22.08,2.7q-5.13,5.53-5.13,15.37t5.13,15.37a16.32,16.32,0,0,0,12.46,5.53A16.76,16.76,0,0,0,881,232.7a13.45,13.45,0,0,0,5.47-7.9h18.69a31.26,31.26,0,0,1-11.49,18.69Q884.68,250.55,871.53,250.56Z"/><path class="cls-1" d="M944.62,250.56q-8.85,0-14.53-2.84a19.63,19.63,0,0,1-8.45-7.55,20,20,0,0,1-2.77-10.38,18.89,18.89,0,0,1,7.48-15.51q7.47-5.94,22.43-5.95h17.44v-1.66q0-7.06-4-10.39a15.17,15.17,0,0,0-10-3.32,17.21,17.21,0,0,0-9.42,2.56,11,11,0,0,0-5,7.55H920.53a24.15,24.15,0,0,1,5.06-13,28.25,28.25,0,0,1,11.28-8.51,38.93,38.93,0,0,1,15.51-3q14.67,0,23.12,7.34t8.44,20.77v42.22H968.85l-1.66-11.07a25.65,25.65,0,0,1-8.51,9.14Q953.21,250.56,944.62,250.56Zm4-13.85q7.61,0,11.83-5a24.3,24.3,0,0,0,5.34-12.32h-15.1q-7.05,0-10.1,2.56a7.93,7.93,0,0,0-3.05,6.3,7.27,7.27,0,0,0,3.05,6.23A13.38,13.38,0,0,0,948.64,236.71Z"/><path class="cls-1" d="M1030.46,248.89q-10.8,0-17.31-5.26t-6.5-18.69V195H994.88V180.23h11.77l2.07-18.42h15.65v18.42h18.55V195h-18.55v30c0,3.32.71,5.61,2.14,6.85s3.9,1.87,7.41,1.87h8.58v15.09Z"/><path class="cls-1" d="M1067.7,169.56a11.2,11.2,0,0,1-8-2.9,9.61,9.61,0,0,1-3.12-7.34,9.39,9.39,0,0,1,3.12-7.27,12.58,12.58,0,0,1,15.92,0,9.39,9.39,0,0,1,3.12,7.27,9.61,9.61,0,0,1-3.12,7.34A11.2,11.2,0,0,1,1067.7,169.56Zm-8.86,79.33V180.23h17.72v68.66Z"/><path class="cls-1" d="M1128.06,250.56a35.45,35.45,0,0,1-17.93-4.57,33.59,33.59,0,0,1-12.59-12.67,40,40,0,0,1,.06-37.52,34.08,34.08,0,0,1,12.67-12.67,37.18,37.18,0,0,1,35.72,0,33.54,33.54,0,0,1,12.6,12.67,40.24,40.24,0,0,1,0,37.52A33.44,33.44,0,0,1,1145.92,246,35.54,35.54,0,0,1,1128.06,250.56Zm0-15.37a16.39,16.39,0,0,0,12-5.19q5.12-5.19,5.12-15.44t-5.12-15.44a16.49,16.49,0,0,0-24,0q-5.05,5.19-5.06,15.44t5.06,15.44A16.15,16.15,0,0,0,1128.06,235.19Z"/><path class="cls-1" d="M1179,248.89V180.23h15.64l1.39,11.62a24.15,24.15,0,0,1,9.2-9.69,27.16,27.16,0,0,1,14.19-3.6q12.75,0,19.8,8t7.06,23.54v38.76h-17.72v-37.1q0-8.85-3.6-13.57t-11.21-4.7a15.77,15.77,0,0,0-12.25,5.26q-4.79,5.26-4.78,14.67v35.44Z"/><path class="cls-1" d="M1296.55,248.89V152h35.85q11.64,0,19.25,3.88A26,26,0,0,1,1363,166.52a31,31,0,0,1,3.74,15.23,30.68,30.68,0,0,1-3.6,14.74,26.41,26.41,0,0,1-11.22,10.8q-7.61,4.08-19.52,4.09h-18.13v37.51ZM1314.27,197h17q9.27,0,13.36-4.09t4.08-11.14q0-7.2-4.08-11.29t-13.36-4.08h-17Z"/><path class="cls-1" d="M1380.17,248.89V180.23H1396l1.66,12.87A27.94,27.94,0,0,1,1423,178.56v18.69h-5a28.34,28.34,0,0,0-10.38,1.8,14,14,0,0,0-7.13,6.23c-1.71,3-2.56,7.06-2.56,12.33v31.28Z"/><path class="cls-1" d="M1466.7,250.56a35.4,35.4,0,0,1-17.93-4.57,33.54,33.54,0,0,1-12.6-12.67,37.1,37.1,0,0,1-4.64-18.76,36.63,36.63,0,0,1,4.71-18.76,34.08,34.08,0,0,1,12.67-12.67,37.18,37.18,0,0,1,35.72,0,33.59,33.59,0,0,1,12.59,12.67,40.24,40.24,0,0,1,0,37.52A33.42,33.42,0,0,1,1484.56,246,35.56,35.56,0,0,1,1466.7,250.56Zm0-15.37a16.37,16.37,0,0,0,12-5.19q5.12-5.19,5.12-15.44t-5.12-15.44a16.49,16.49,0,0,0-24,0q-5.06,5.19-5,15.44t5,15.44A16.16,16.16,0,0,0,1466.7,235.19Z"/><path class="cls-1" d="M1504.63,279.35V264.26h5.4q4.56,0,6.51-1.8t1.93-6.09V180.23h17.72v76.14q0,12.47-6.3,17.72t-17.09,5.26Zm22.84-109.79a11.2,11.2,0,0,1-8-2.9,9.61,9.61,0,0,1-3.11-7.34,9.38,9.38,0,0,1,3.11-7.27,12.58,12.58,0,0,1,15.92,0,9.39,9.39,0,0,1,3.12,7.27,9.61,9.61,0,0,1-3.12,7.34A11.18,11.18,0,0,1,1527.47,169.56Z"/><path class="cls-1" d="M1588.11,250.56a37.51,37.51,0,0,1-18.41-4.43,32.05,32.05,0,0,1-12.6-12.46,36.85,36.85,0,0,1-4.57-18.56,39.15,39.15,0,0,1,4.5-19,32.64,32.64,0,0,1,12.46-13,36.63,36.63,0,0,1,18.76-4.64,35.42,35.42,0,0,1,17.86,4.43,31.89,31.89,0,0,1,12.11,12.12,34,34,0,0,1,4.36,17.1c0,1,0,2.07-.07,3.18s-.11,2.26-.2,3.46h-52.2q.56,8,5.61,12.6A17.6,17.6,0,0,0,1588,236a16.16,16.16,0,0,0,9.07-2.42,15.11,15.11,0,0,0,5.47-6.3h18a32.67,32.67,0,0,1-6.44,11.83,31.63,31.63,0,0,1-11.08,8.38A35,35,0,0,1,1588.11,250.56Zm.14-57.6a18.9,18.9,0,0,0-11.49,3.67q-5,3.68-6.37,11.15h34.19a14.9,14.9,0,0,0-5-10.8A16.55,16.55,0,0,0,1588.25,193Z"/><path class="cls-1" d="M1671.18,250.56a37,37,0,0,1-18.56-4.57A33.25,33.25,0,0,1,1640,233.25a40,40,0,0,1,0-37.38,33.25,33.25,0,0,1,12.66-12.74,37,37,0,0,1,18.56-4.57q13.14,0,22.15,6.86t11.49,18.89h-18.69a13.74,13.74,0,0,0-5.47-7.82,17.15,17.15,0,0,0-22.08,2.7q-5.13,5.53-5.13,15.37t5.13,15.37a16.32,16.32,0,0,0,12.46,5.53,16.76,16.76,0,0,0,9.62-2.76,13.45,13.45,0,0,0,5.47-7.9h18.69a31.26,31.26,0,0,1-11.49,18.69Q1684.33,250.55,1671.18,250.56Z"/><path class="cls-1" d="M1750.23,248.89q-10.8,0-17.31-5.26t-6.5-18.69V195h-11.77V180.23h11.77l2.07-18.42h15.65v18.42h18.55V195h-18.55v30c0,3.32.71,5.61,2.14,6.85s3.9,1.87,7.41,1.87h8.58v15.09Z"/></svg>