<svg id="Layer_1" data-name="Layer 1" xmlns="http://www.w3.org/2000/svg" viewBox="0 0 892.95 359.08"><defs><style>.cls-1{fill:#fff;}</style></defs><ellipse class="cls-1" cx="177.88" cy="348.17" rx="11.11" ry="10.92"/><ellipse class="cls-1" cx="89.08" cy="279.12" rx="13.55" ry="13.31"/><ellipse class="cls-1" cx="280.84" cy="314.13" rx="10.04" ry="9.87"/><ellipse class="cls-1" cx="269.59" cy="277.58" rx="7.82" ry="7.68"/><ellipse class="cls-1" cx="258.87" cy="191.98" rx="8.85" ry="8.69"/><ellipse class="cls-1" cx="8.85" cy="237.09" rx="8.85" ry="8.69"/><ellipse class="cls-1" cx="98.68" cy="332.91" rx="8.29" ry="8.14"/><ellipse class="cls-1" cx="149.05" cy="223.22" rx="12.51" ry="12.28"/><ellipse class="cls-1" cx="159.43" cy="121.58" rx="14.38" ry="14.13"/><ellipse class="cls-1" cx="127.12" cy="121.28" rx="8.2" ry="8.05"/><ellipse class="cls-1" cx="65.06" cy="148.3" rx="9.12" ry="8.96"/><ellipse class="cls-1" cx="205.96" cy="57.07" rx="8.39" ry="8.24"/><ellipse class="cls-1" cx="286.56" cy="95.71" rx="8.77" ry="8.61"/><ellipse class="cls-1" cx="286.12" cy="50.65" rx="8.09" ry="7.95"/><ellipse class="cls-1" cx="338.63" cy="130.02" rx="15.37" ry="15.1"/><ellipse class="cls-1" cx="194.77" cy="10.84" rx="11.03" ry="10.84"/><ellipse class="cls-1" cx="93.19" cy="29.9" rx="14.42" ry="14.16"/><ellipse class="cls-1" cx="346.05" cy="192.24" rx="8.45" ry="8.3"/><ellipse class="cls-1" cx="11.39" cy="121.12" rx="7.62" ry="7.49"/><path class="cls-1" d="M105,45.28l42.47,61.13c.44-.32.89-.64,1.35-.94L106.22,44.22C105.81,44.58,105.39,44.94,105,45.28Z"/><path class="cls-1" d="M151.67,206.6a8.76,8.76,0,0,0-2-.2l6.81-66a9.05,9.05,0,0,0,2,.2Z"/><path class="cls-1" d="M151.83,206.81l-.19,0a8.92,8.92,0,0,0-2-.2h-.19l0-.19,6.82-66.24.2.05a8.8,8.8,0,0,0,2,.19h.19l0,.2Zm-2-.59a9.05,9.05,0,0,1,1.65.16l6.76-65.65a9.14,9.14,0,0,1-1.65-.16Z"/><path class="cls-1" d="M100.28,47.8,122,109.16a8.75,8.75,0,0,1,1.57-.52L101.8,47.16A8,8,0,0,1,100.28,47.8Z"/><path class="cls-1" d="M77,140.68a8.74,8.74,0,0,1,.85,1.42l37.24-15a14,14,0,0,1-.66-1.54Z"/><path class="cls-1" d="M131.65,227.17a11.89,11.89,0,0,1-.29-1.56L22.71,235a13.43,13.43,0,0,1,.18,1.61Z"/><path class="cls-1" d="M277.07,105.72a12.58,12.58,0,0,1-1.15-1.17l-59.85,56.13-.12-.08-40.17-28.45-.12.16c-.28.38-.55.75-.87,1.14l40.09,28.36-.15.15-52.95,49.7a12.73,12.73,0,0,1,1.07,1.21l53.39-50.09.12.09L247,184.58a12.36,12.36,0,0,1,1-1.29l-30.58-21.64.16-.14Z"/><path class="cls-1" d="M197.07,67.11,168,104.32a10.26,10.26,0,0,1,1.48.77l28.95-37A13.6,13.6,0,0,1,197.07,67.11Z"/><path class="cls-1" d="M178,115.53c.19.58.34,1.08.45,1.53l94.59-18a10.26,10.26,0,0,1-.32-1.58Z"/><path class="cls-1" d="M164.57,231.62l92.9,41.46a10.75,10.75,0,0,1,.66-1.49l-92.86-41.42C165.06,230.65,164.82,231.14,164.57,231.62Z"/><path class="cls-1" d="M243,53.23l-35.47-32.5a12.73,12.73,0,0,1-1.07,1.21l34.38,31.54-21.38,1.74a11.85,11.85,0,0,1,.12,1.57L242.38,55l.06.05,34,31.23a9.13,9.13,0,0,1,1.23-1.09L244.6,54.77l.41,0,28-2.25a13.65,13.65,0,0,1-.12-1.56L243,53.28Z"/><path class="cls-1" d="M166,218.9a13.12,13.12,0,0,1,.38,1.62l79.41-23.72a12.68,12.68,0,0,1-.5-1.63Z"/><path class="cls-1" d="M273.79,90.19a10,10,0,0,1,.74-1.4L219,60.86a10.54,10.54,0,0,1-.57,1.54Z"/><path class="cls-1" d="M268.43,305.46a12.93,12.93,0,0,1,1-1.25L252,292.5l.2-.15,7.84-6.17a9.9,9.9,0,0,1-1.07-1.26l-8.41,6.65-.1-.07L231.7,279l24.93-.4c0-.34,0-.68,0-1a5.24,5.24,0,0,1,0-.56l-27.31.39,0,0-65.9-43.88c-.32.43-.65.88-1,1.29l64.13,42.71h-.57l-118.08,1.91a14.18,14.18,0,0,1-.12,1.61l121.1-2,.05,0,20.31,13.5-.19.15-58.09,45.79a11.63,11.63,0,0,1,.91,1.37l58.82-46.34.1.07Z"/><path class="cls-1" d="M91.28,49a15.11,15.11,0,0,1-1.63-.2L51.12,137.15l-.16-.07L23.32,125.66a12.47,12.47,0,0,1-.66,1.49l27.8,11.49-.07.17L13.29,224c.61.23,1.09.43,1.53.64Z"/><path class="cls-1" d="M161.66,347.35a8.71,8.71,0,0,1,.16-1.62L112,335a12.14,12.14,0,0,1-.32,1.57Z"/><path class="cls-1" d="M97.09,319.75,93,297.12c-.54.11-1.08.2-1.61.28l4.14,22.67A13.32,13.32,0,0,1,97.09,319.75Z"/><path class="cls-1" d="M20.06,111.9,80.29,44.36a11.1,11.1,0,0,1-1.15-1.12L18.82,110.86l.12.09A9.89,9.89,0,0,1,20.06,111.9Z"/><path class="cls-1" d="M288.62,301.28l51.46-97a13,13,0,0,1-1.45-.81l-51.54,97.09A10,10,0,0,1,288.62,301.28Z"/><path class="cls-1" d="M285.12,299.82a8.88,8.88,0,0,1,1.56.53l18.94-61.05,32.17-36.45a6.67,6.67,0,0,1-1.27-1l-29.73,33.79.24-.79,26.41-85.23-.42-.12c-.38-.11-.77-.22-1.14-.36l-27.8,89.51L278.19,268c.4.36.77.73,1.14,1.13L303,242.32l-.24.79Z"/><path class="cls-1" d="M179.06,14.73a13.27,13.27,0,0,1-.32-1.62l-66.37,13c.11.53.2,1.06.28,1.57Z"/><path class="cls-1" d="M209.9,16.53a12.93,12.93,0,0,1-.7,1.5l64.48,28.09a12.47,12.47,0,0,1,.66-1.49Z"/><path class="cls-1" d="M193.41,343.35a11.41,11.41,0,0,1,.42,1.57l73-25.07a8.33,8.33,0,0,1-.54-1.58Z"/><path class="cls-1" d="M192.6,54.8a11.64,11.64,0,0,1,.38-1.57L112.19,34.54a14,14,0,0,1-.44,1.53Z"/><path class="cls-1" d="M21.34,243.39a9.71,9.71,0,0,1-.87,1.42l51.32,27.33a13.46,13.46,0,0,1,.66-1.45Z"/><path class="cls-1" d="M8.85,223.32c.34,0,.69,0,1,0l1.4-89.64a15.63,15.63,0,0,1-1.7-.12L8.23,223.34C8.45,223.32,8.67,223.32,8.85,223.32Z"/><path class="cls-1" d="M340.11,150.15l3.26,29a9.32,9.32,0,0,1,1.65-.21L341.66,150C341.17,150.07,340.64,150.11,340.11,150.15Z"/><path class="cls-1" d="M278.39,299.4l-3.66-10.07a13.59,13.59,0,0,1-1.56.53l3.63,9.88A9.92,9.92,0,0,1,278.39,299.4Z"/><path class="cls-1" d="M135.45,234.76l-32.9,31.59a12.08,12.08,0,0,1,1.12,1.25l32.94-31.67A12.69,12.69,0,0,1,135.45,234.76Z"/><path class="cls-1" d="M90.18,322.68l-71.27-76a8.56,8.56,0,0,1-1.19,1.09l71.27,76A7,7,0,0,1,90.18,322.68Z"/><path class="cls-1" d="M117.09,129.91,83.05,163l-6.83-6a6.89,6.89,0,0,1-1.07,1.2l6.75,5.9-.14.13-64,62.22c.4.35.81.72,1.19,1.09l64.18-62.4,8.48,7.42-.17.13L19.38,228a15.83,15.83,0,0,1,1,1.25l72.5-55.6.11.1,43.24,37.72c.38-.39.75-.73,1.15-1.08L94.17,172.63l.17-.13L144.52,134c-.31-.38-.65-.8-1-1.24l-50.6,38.79-.11-.09L84.28,164l.14-.13L118.19,131A10,10,0,0,1,117.09,129.91Z"/><path class="cls-1" d="M279.77,176.78l.06-.05,43.22-33.59c-.35-.39-.68-.79-1-1.25l-42,32.66,0-.4,6-64.72a12.28,12.28,0,0,1-1.65-.17l-6.14,66.67-.07,0-8.83,6.85a7.79,7.79,0,0,1,1,1.25l7.67-5.93,0,.4-8,86.24a8.76,8.76,0,0,1,1.6.16Z"/><path class="cls-1" d="M321.16,119.48c.29-.45.58-.89.9-1.33l-23.5-15.47a9.9,9.9,0,0,1-.9,1.33Z"/><path class="cls-1" d="M293.87,61.2a11.22,11.22,0,0,1-1.22.81l34.11,51.57a11.48,11.48,0,0,1,1.4-.9L294,61.11Z"/><path class="cls-1" d="M163.92,340a7.28,7.28,0,0,1,.9-1.32l-61.24-47.89c-.33.4-.71.81-1.11,1.22Z"/><path class="cls-1" d="M426.44,110.18V49.92H405.85V39.53h54.2V49.92H439.36v60.26Z"/><path class="cls-1" d="M469.34,110.18V37.51h12.92V67.79a18,18,0,0,1,6.81-6.51,20,20,0,0,1,9.84-2.37q9.29,0,14.38,5.85t5.1,17.16v28.26H505.57V83.13q0-6.45-2.57-9.89t-8.13-3.43a11.85,11.85,0,0,0-9,3.83q-3.58,3.84-3.58,10.7v25.84Z"/><path class="cls-1" d="M555,111.39a27.29,27.29,0,0,1-13.43-3.23,23.37,23.37,0,0,1-9.18-9.08,26.87,26.87,0,0,1-3.33-13.53,28.48,28.48,0,0,1,3.28-13.82,23.72,23.72,0,0,1,9.08-9.44,26.74,26.74,0,0,1,13.68-3.38,25.82,25.82,0,0,1,13,3.23A23.12,23.12,0,0,1,577,71a24.79,24.79,0,0,1,3.18,12.46c0,.75,0,1.52,0,2.33s-.09,1.65-.15,2.52H541.91A13,13,0,0,0,546,97.46a12.83,12.83,0,0,0,8.94,3.33A11.74,11.74,0,0,0,561.54,99a11,11,0,0,0,4-4.59h13.13a23.89,23.89,0,0,1-4.7,8.63,23.1,23.1,0,0,1-8.07,6.1A25.53,25.53,0,0,1,555,111.39Zm.1-42a13.76,13.76,0,0,0-8.38,2.67,12.38,12.38,0,0,0-4.64,8.13H567a10.91,10.91,0,0,0-3.63-7.88A12.13,12.13,0,0,0,555.13,69.41Z"/><path class="cls-1" d="M610.84,110.18l25.84-70.65h14.54l25.83,70.65H663.33l-5.65-16.35H630.12l-5.75,16.35Zm22.81-26.44h20.49L643.85,54.37Z"/><path class="cls-1" d="M686.14,110.18V39.53h12.92v70.65Z"/><path class="cls-1" d="M410,216.88V146.23h46.13v10.4H422.91V176h30.18V186.1H422.91v20.39h33.21v10.39Z"/><path class="cls-1" d="M491,218.09a23.49,23.49,0,0,1-12.62-3.43,24.49,24.49,0,0,1-8.78-9.38,28,28,0,0,1-3.23-13.53,27.61,27.61,0,0,1,3.23-13.47,24.31,24.31,0,0,1,8.78-9.29A23.81,23.81,0,0,1,491,165.61a21.89,21.89,0,0,1,9.89,2.12,17.89,17.89,0,0,1,6.86,6V144.21h12.92v72.67h-11.5l-1.42-7.16a22.86,22.86,0,0,1-6.41,5.85Q497.39,218.09,491,218.09Zm2.72-11.3A13.54,13.54,0,0,0,504,202.6a16.51,16.51,0,0,0,0-21.5,14.62,14.62,0,0,0-20.44,0,14.69,14.69,0,0,0-4,10.7,15,15,0,0,0,4,10.8A13.46,13.46,0,0,0,493.76,206.79Z"/><path class="cls-1" d="M552.61,218.09q-9.39,0-14.49-5.85T533,195.08V166.82h12.82v27.05q0,6.47,2.63,9.89c1.75,2.29,4.5,3.43,8.27,3.43a11.42,11.42,0,0,0,8.84-3.83q3.48-3.84,3.48-10.7V166.82H582v50.06H570.57l-1-8.48a17.55,17.55,0,0,1-6.71,7.07A19.58,19.58,0,0,1,552.61,218.09Z"/><path class="cls-1" d="M619.73,218.09a26.87,26.87,0,0,1-13.53-3.33,24.3,24.3,0,0,1-9.24-9.28,29.15,29.15,0,0,1,0-27.25,24.32,24.32,0,0,1,9.24-9.29,26.87,26.87,0,0,1,13.53-3.33q9.59,0,16.14,5a22.3,22.3,0,0,1,8.38,13.77H630.63a10,10,0,0,0-4-5.7,12.51,12.51,0,0,0-16.1,2q-3.74,4-3.73,11.2t3.73,11.21a11.91,11.91,0,0,0,9.08,4,12.18,12.18,0,0,0,7-2,9.79,9.79,0,0,0,4-5.75h13.62A22.81,22.81,0,0,1,635.87,213Q629.32,218.1,619.73,218.09Z"/><path class="cls-1" d="M673,218.09a23.82,23.82,0,0,1-10.6-2.06,14.35,14.35,0,0,1-6.16-5.51,14.68,14.68,0,0,1-2-7.56,13.78,13.78,0,0,1,5.45-11.31q5.46-4.34,16.35-4.34h12.72V186.1c0-3.43-1-6-2.92-7.57a11,11,0,0,0-7.27-2.42,12.49,12.49,0,0,0-6.86,1.86,8,8,0,0,0-3.64,5.5H655.45a17.62,17.62,0,0,1,3.69-9.48,20.69,20.69,0,0,1,8.22-6.21,28.34,28.34,0,0,1,11.31-2.17q10.7,0,16.86,5.35t6.15,15.14v30.78h-11l-1.21-8.07a18.66,18.66,0,0,1-6.21,6.66A18.29,18.29,0,0,1,673,218.09ZM675.94,208a10.7,10.7,0,0,0,8.63-3.63,17.6,17.6,0,0,0,3.89-9h-11c-3.43,0-5.89.63-7.37,1.87a5.79,5.79,0,0,0-2.22,4.59,5.3,5.3,0,0,0,2.22,4.55A9.77,9.77,0,0,0,675.94,208Z"/><path class="cls-1" d="M735.6,216.88q-7.87,0-12.62-3.83t-4.74-13.63v-21.8h-8.58v-10.8h8.58l1.51-13.42h11.41v13.42h13.52v10.8H731.16v21.9c0,2.43.52,4.09,1.56,5s2.84,1.36,5.4,1.36h6.26v11Z"/><path class="cls-1" d="M762.75,159.05a8.2,8.2,0,0,1-5.81-2.12,7,7,0,0,1-2.27-5.35,6.87,6.87,0,0,1,2.27-5.3,9.17,9.17,0,0,1,11.61,0,6.87,6.87,0,0,1,2.27,5.3,7,7,0,0,1-2.27,5.35A8.17,8.17,0,0,1,762.75,159.05Zm-6.46,57.83V166.82h12.92v50.06Z"/><path class="cls-1" d="M806.75,218.09a25.8,25.8,0,0,1-13.07-3.33,24.43,24.43,0,0,1-9.18-9.23,27,27,0,0,1-3.38-13.68,26.66,26.66,0,0,1,3.43-13.67,24.73,24.73,0,0,1,9.23-9.24,27.12,27.12,0,0,1,26,0,24.49,24.49,0,0,1,9.19,9.24,29.35,29.35,0,0,1,0,27.35,24.38,24.38,0,0,1-9.24,9.23A25.85,25.85,0,0,1,806.75,218.09Zm0-11.2a11.94,11.94,0,0,0,8.78-3.78q3.74-3.8,3.74-11.26t-3.74-11.25a12,12,0,0,0-17.51,0q-3.67,3.78-3.68,11.25T798,203.11A11.8,11.8,0,0,0,806.75,206.89Z"/><path class="cls-1" d="M843.9,216.88V166.82h11.4l1,8.48a17.68,17.68,0,0,1,6.71-7.07,19.8,19.8,0,0,1,10.35-2.62q9.28,0,14.43,5.85T893,188.62v28.26H880v-27q0-6.45-2.62-9.89c-1.76-2.29-4.48-3.43-8.18-3.43a11.51,11.51,0,0,0-8.93,3.84q-3.48,3.83-3.48,10.69v25.84Z"/><path class="cls-1" d="M410,323.58V252.93h26.14q8.47,0,14,2.83a18.93,18.93,0,0,1,8.28,7.77,22.7,22.7,0,0,1,2.72,11.1,22.35,22.35,0,0,1-2.62,10.75,19.23,19.23,0,0,1-8.18,7.87q-5.55,3-14.23,3H422.91v27.35Zm12.92-37.85h12.41q6.76,0,9.74-3a11,11,0,0,0,3-8.13q0-5.25-3-8.22t-9.74-3H422.91Z"/><path class="cls-1" d="M471,323.58V273.52h11.51l1.21,9.39a20.36,20.36,0,0,1,18.47-10.6v13.63h-3.63a20.61,20.61,0,0,0-7.57,1.31,10.17,10.17,0,0,0-5.2,4.54c-1.25,2.15-1.87,5.15-1.87,9v22.81Z"/><path class="cls-1" d="M534,324.79A25.65,25.65,0,0,1,521,321.46a24.39,24.39,0,0,1-9.19-9.23,27.1,27.1,0,0,1-3.38-13.68,26.66,26.66,0,0,1,3.43-13.67,24.83,24.83,0,0,1,9.24-9.24,27.12,27.12,0,0,1,26,0,24.39,24.39,0,0,1,9.18,9.24,29.35,29.35,0,0,1,0,27.35,24.28,24.28,0,0,1-9.23,9.23A25.8,25.8,0,0,1,534,324.79Zm0-11.2a12,12,0,0,0,8.78-3.78q3.73-3.8,3.73-11.26t-3.73-11.25a12,12,0,0,0-17.51,0q-3.69,3.78-3.69,11.25t3.69,11.26A11.76,11.76,0,0,0,534,313.59Z"/><path class="cls-1" d="M561.69,345.79v-11h3.94q3.33,0,4.74-1.31c.94-.88,1.41-2.36,1.41-4.45V273.52H584.7V329q0,9.09-4.59,12.92t-12.46,3.84Zm16.66-80a8.2,8.2,0,0,1-5.81-2.12,7,7,0,0,1-2.27-5.35,6.87,6.87,0,0,1,2.27-5.3,9.17,9.17,0,0,1,11.61,0,6.87,6.87,0,0,1,2.27,5.3,7,7,0,0,1-2.27,5.35A8.19,8.19,0,0,1,578.35,265.75Z"/><path class="cls-1" d="M622.55,324.79a27.35,27.35,0,0,1-13.42-3.22,23.48,23.48,0,0,1-9.19-9.09A26.86,26.86,0,0,1,596.61,299a28.66,28.66,0,0,1,3.28-13.83,23.87,23.87,0,0,1,9.09-9.44,26.73,26.73,0,0,1,13.67-3.38,25.77,25.77,0,0,1,13,3.23,23.21,23.21,0,0,1,8.84,8.83,24.82,24.82,0,0,1,3.18,12.47c0,.74,0,1.51-.05,2.32s-.09,1.65-.16,2.52H609.43a13,13,0,0,0,4.09,9.19,12.85,12.85,0,0,0,8.93,3.33,11.7,11.7,0,0,0,6.61-1.77,11,11,0,0,0,4-4.59h13.12a23.87,23.87,0,0,1-4.69,8.63,23,23,0,0,1-8.08,6.1A25.5,25.5,0,0,1,622.55,324.79Zm.1-42a13.75,13.75,0,0,0-8.37,2.67,12.41,12.41,0,0,0-4.65,8.13h24.93a10.91,10.91,0,0,0-3.63-7.88A12.09,12.09,0,0,0,622.65,282.81Z"/><path class="cls-1" d="M683.11,324.79a26.76,26.76,0,0,1-13.52-3.33,24.23,24.23,0,0,1-9.24-9.28,29.15,29.15,0,0,1,0-27.25,24.26,24.26,0,0,1,9.24-9.29,26.86,26.86,0,0,1,13.52-3.33q9.58,0,16.15,5a22.34,22.34,0,0,1,8.38,13.77H694a10,10,0,0,0-4-5.7,12.51,12.51,0,0,0-16.1,2q-3.73,4-3.74,11.2t3.74,11.21a11.9,11.9,0,0,0,9.08,4,12.27,12.27,0,0,0,7-2,9.79,9.79,0,0,0,4-5.76h13.63a22.86,22.86,0,0,1-8.38,13.63Q692.71,324.79,683.11,324.79Z"/><path class="cls-1" d="M740.75,323.58q-7.87,0-12.62-3.83t-4.74-13.63v-21.8h-8.58v-10.8h8.58l1.51-13.42h11.4v13.42h13.53v10.8H736.3v21.9c0,2.43.53,4.09,1.57,5s2.84,1.36,5.4,1.36h6.26v11Z"/></svg>