<svg xmlns="http://www.w3.org/2000/svg" viewBox="0 0 187.77 182.68"><defs><style>.cls-1{fill:#fff;}</style></defs><g id="Layer_2" data-name="Layer 2"><g id="Layer_1-2" data-name="Layer 1"><path class="cls-1" d="M68.71,34.3l1.92-1.92A19,19,0,0,0,75.72,14.9a2.86,2.86,0,0,0-4.82-1.37L59.53,25a2.86,2.86,0,0,1-4,0L51.21,20.7a2.87,2.87,0,0,1,0-4.05L62.58,5.23a2.85,2.85,0,0,0-1.4-4.8A18.93,18.93,0,0,0,43.73,5.58L41.81,7.51A19,19,0,0,0,38,28.7l-19.88,20a14.12,14.12,0,1,0,9.59,9.55l19.88-20A19,19,0,0,0,68.71,34.3Z"/><path class="cls-1" d="M124.63,109.31l-.44-.3a5,5,0,0,0,.11-1.1V103c2-.17,7.28-2.73,9.25-4.67a17.55,17.55,0,0,0,3-3.9c6.34,4.62,11.48,7,12.76,5.56S147.13,93,141,86.6c5.09-7,3.67-17.35-3.56-23.77-6.93-6.18-16.82-6.61-23.24-1.43,0-6.5.09-12.88-6.81-8.66-3.78,2.31-4.84,6.27-5.52,9.12-2.43-.8-6.39,2.75-4.59,7.13A8.58,8.58,0,0,0,104.14,74a18.27,18.27,0,0,0-4.37,6,7.2,7.2,0,0,0-3.64,4,6.22,6.22,0,0,0,.37,5.16A7.19,7.19,0,0,0,99.18,92a17.53,17.53,0,0,0,1.14,2.64,20.5,20.5,0,0,0,12.84,9.81l.09.12c0,1.08,0,2.21,0,3.4a.29.29,0,0,1-.14.28s-2-2.06-31.13,14.29c-18.34,10.29-41.37,2.94-57.49-23-1-4.85-3.79-12-5-11.32-1.41.79.13,2.41-.16,6.18-2.36-2.86-5.9-5.7-7-5.08-1.55.87-1.59,8.47.17,12.31,1.61,3.52,4,5.19,6.61,6.73,0,0,10.85,38.93,32.44,49.5a40.19,40.19,0,0,0,14.61,4.13,142.47,142.47,0,0,0-5.75,17.56A2.54,2.54,0,0,0,63,182.68h91.27a12.38,12.38,0,0,0,.6-1.21c2.74-6.46-.49-14.4-3.08-20.79a50.34,50.34,0,0,1-2.19-6l2.91-.74a48.64,48.64,0,0,0,2.06,5.65c2.65,6.54,6.29,15.49,3.06,23.09a.05.05,0,0,1,0,0h26.32a2.55,2.55,0,0,0,2.45-1.82,33.81,33.81,0,0,0,1.43-8.73C188.54,131.93,128.26,110.57,124.63,109.31Zm-8.8-1,.37-6.23,0,0V102l-1.18-.27a18,18,0,0,1-12-8.58,14.13,14.13,0,0,1-1.1-2.68l-.18-.63-.59-.29a4.3,4.3,0,0,1-1.95-1.81A3.27,3.27,0,0,1,98.94,85a4.33,4.33,0,0,1,2.54-2.45l.6-.24.24-.6c1.06-2.66,4.42-7.94,9.74-9.52l-1.36,0a32.79,32.79,0,0,1,8.29-.75s.27,8.82.91,9.77c2.39,3.54,4.89,3.85,4.89,3.85,1.77-4.06,6.91-2,8,1.46C134.17,90.8,129,93.9,129,93.9a11.46,11.46,0,0,0,1.73,2.37,17.55,17.55,0,0,1-8.86,4.89l.29,7.22Z"/></g></g></svg>