<svg xmlns="http://www.w3.org/2000/svg" viewBox="0 0 155.89 173.46"><defs><style>.cls-1{fill:#fff;}</style></defs><g id="Layer_2" data-name="Layer 2"><g id="Layer_1-2" data-name="Layer 1"><path class="cls-1" d="M150.69,104.54h-8.15a31,31,0,0,0-3-10.16,28,28,0,0,0-6.79-8.72,8.32,8.32,0,0,0,.85-3.67,7.9,7.9,0,1,0-7.89,8.2A7.73,7.73,0,0,0,131.06,88a25.12,25.12,0,0,1,6,7.74,27.57,27.57,0,0,1,2.7,8.83H5.2A5.32,5.32,0,0,0,0,110v9.83a5.31,5.31,0,0,0,5.2,5.41H150.69a5.31,5.31,0,0,0,5.2-5.41V110A5.32,5.32,0,0,0,150.69,104.54Z"/><path class="cls-1" d="M136.53,129.63h-119a7.16,7.16,0,0,0-7,7.3v29.22a7.17,7.17,0,0,0,7,7.31h119a7.17,7.17,0,0,0,7-7.31V136.93A7.16,7.16,0,0,0,136.53,129.63Z"/><path class="cls-1" d="M76.2,74.87h-.14a6.26,6.26,0,0,1-10.42.3l-.73,0c-1.26.07-2.17.12-2.7.12h-.16l-1.48,0h-.31c-1.48,0-3.17-.1-4.91-.1-7,0-15.69.75-20.73,6.63-3.49,4.06-4.78,10.29-3.85,18.52h80.05c0-2.51-1.88-14.43-1.88-14.43l-.27-.88C106.6,78.28,95.68,74.87,76.2,74.87Z"/><path class="cls-1" d="M97.08,47.43a6.49,6.49,0,0,1-4.85,1.92,20.7,20.7,0,0,1-4.91,8,20.21,20.21,0,0,1-9.47,5.42l-.27,7.24c15,0,25.44,2.24,31.29,6.54.9-4-.29-8.09-3.44-10.13C100.91,63.53,95.13,56.12,97.08,47.43Z"/><path class="cls-1" d="M18,100.32h7.89c-1-9.45.67-16.76,4.95-21.76C37,71.34,47,70.41,55,70.41c1.87,0,3.67.06,5.27.11l1.81,0h.09c.39,0,1.23,0,2.31-.1,0-.12,0-.25,0-.37l.32-8.33a20.35,20.35,0,0,1-6.4-4.38,20.7,20.7,0,0,1-4.91-8,6.48,6.48,0,0,1-4.85-1.92,6.71,6.71,0,0,1,0-9.38,6.43,6.43,0,0,1,3.93-1.88h3.67l1.28,7.17a1.37,1.37,0,0,0,1.33,1.15H70.78a1.37,1.37,0,0,0,1.33-1.15l.88-4.9h3.23l.88,4.9a1.37,1.37,0,0,0,1.33,1.15H90.37a1.36,1.36,0,0,0,1.32-1.15L93,36.15a6.44,6.44,0,0,1,4.1,1.9,6.76,6.76,0,0,1,1.63,2.75c.22-.29.43-.58.63-.9A12.63,12.63,0,0,0,96.27,23c-.13-.1-.27-.17-.41-.26A10,10,0,0,0,92.17,11a9.7,9.7,0,0,0-5.26-1.71A6.7,6.7,0,0,0,84.6,1.13,6.49,6.49,0,0,0,77.74.84v0l-.12.09a6.54,6.54,0,0,0-1,.74C65.3,9.9,59.48,9.59,55.75,11.91a12.46,12.46,0,0,0-1.55,1.14l-.32.16,0-.19C37,13,38.42,34.61,38.74,44.27s-3.4,11.85-8.08,15.08-14.19,8.59-10.55,18c2.35,6,2.2,7.09,1.82,10.67C21.43,92.78,17.75,93.4,18,100.32ZM69.66,41.68H60l-1-5.51H70.65Zm19.59,0h-9.7l-1-5.51H90.24ZM58.39,28.09a20.46,20.46,0,0,1,5.31-3.87c6.38,3.87,15.92,7,24.55,4.88a20.32,20.32,0,0,1,2.81,4.27H76.93a1.3,1.3,0,0,0-1,.5A1.41,1.41,0,0,0,75.61,35l.11.6H73.49l.11-.6a1.47,1.47,0,0,0-.29-1.16,1.32,1.32,0,0,0-1-.5H54.63A20.58,20.58,0,0,1,58.39,28.09Z"/></g></g></svg>