<svg xmlns="http://www.w3.org/2000/svg" viewBox="0 0 204.03 178.51"><defs><style>.cls-1{fill:#fff;}</style></defs><g id="Layer_2" data-name="Layer 2"><g id="Layer_1-2" data-name="Layer 1"><path class="cls-1" d="M9,15.26H48.74a1.51,1.51,0,0,0,1.51-1.51V1.51A1.52,1.52,0,0,0,48.74,0H9A4.55,4.55,0,0,0,4.43,4.53v6.2A4.55,4.55,0,0,0,9,15.26Z"/><rect class="cls-1" x="54.11" width="3.49" height="15.26" rx="1.51"/><path class="cls-1" d="M68,0H63a1.52,1.52,0,0,0-1.51,1.51V13.75A1.51,1.51,0,0,0,63,15.26h5a4.55,4.55,0,0,0,4.53-4.53V4.53A4.55,4.55,0,0,0,68,0Z"/><path class="cls-1" d="M4.43,25.35A4.55,4.55,0,0,0,9,29.88H65.22a1.52,1.52,0,0,0,1.51-1.51V21.12a1.51,1.51,0,0,0-1.51-1.51H9a4.55,4.55,0,0,0-4.53,4.53Z"/><path class="cls-1" d="M83.87,25.35V24.14a4.55,4.55,0,0,0-4.53-4.53H72.1a1.51,1.51,0,0,0-1.51,1.51v7.25a1.52,1.52,0,0,0,1.51,1.51h7.24A4.55,4.55,0,0,0,83.87,25.35Z"/><path class="cls-1" d="M51,48.42V35.7a1.48,1.48,0,1,0-3,0V48.42a1.48,1.48,0,0,0,3,0Z"/><path class="cls-1" d="M79.44,45.36V38.75a4.55,4.55,0,0,0-4.53-4.53H67a1.48,1.48,0,0,0-1.48,1.48V48.42A1.47,1.47,0,0,0,67,49.89h7.94A4.54,4.54,0,0,0,79.44,45.36Z"/><path class="cls-1" d="M0,38.75v6.61a4.54,4.54,0,0,0,4.53,4.53H42.67a1.47,1.47,0,0,0,1.48-1.47V35.7a1.48,1.48,0,0,0-1.48-1.48H4.53A4.55,4.55,0,0,0,0,38.75Z"/><rect class="cls-1" x="14.29" y="54.24" width="46.2" height="15.26" rx="1.51"/><path class="cls-1" d="M65.87,54.24a1.52,1.52,0,0,0-1.51,1.51V68a1.51,1.51,0,0,0,1.51,1.51h1A4.55,4.55,0,0,0,71.44,65v-6.2a4.55,4.55,0,0,0-4.53-4.53Z"/><path class="cls-1" d="M7.88,54.24a4.55,4.55,0,0,0-4.53,4.53V65A4.55,4.55,0,0,0,7.88,69.5h1A1.5,1.5,0,0,0,10.43,68V55.75a1.51,1.51,0,0,0-1.51-1.51Z"/><path class="cls-1" d="M140.89,105.14l-.43-.3a5.7,5.7,0,0,0,.11-1.1V98.81c2-.17,7.28-2.74,9.25-4.67a17.55,17.55,0,0,0,3-3.9c6.34,4.62,11.49,7,12.76,5.56s-2.16-7-8.28-13.38c5.1-7,3.67-17.34-3.55-23.77-6.94-6.17-16.82-6.6-23.25-1.42,0-6.5.1-12.88-6.8-8.66-3.79,2.31-4.85,6.27-5.53,9.12-2.42-.8-6.39,2.75-4.59,7.13a8.59,8.59,0,0,0,6.85,5.05,18.24,18.24,0,0,0-4.36,6,7.2,7.2,0,0,0-3.65,3.94,6.28,6.28,0,0,0,.37,5.17,7.33,7.33,0,0,0,2.68,2.77,18.61,18.61,0,0,0,1.14,2.64,20.5,20.5,0,0,0,12.84,9.81l.09.12c0,1.07.05,2.21.05,3.4a.29.29,0,0,1-.14.28s-2-2.06-31.13,14.29c-18.33,10.29-41.37,2.94-57.49-23-1-4.86-3.79-12-5-11.32-1.41.79.14,2.41-.16,6.18-2.36-2.86-5.89-5.7-7-5.08-1.55.87-1.59,8.47.17,12.31,1.61,3.52,4,5.19,6.62,6.73,0,0,10.85,38.93,32.43,49.5a40.44,40.44,0,0,0,14.61,4.13,144,144,0,0,0-5.75,17.55,2.55,2.55,0,0,0,2.47,3.19h91.26a10.47,10.47,0,0,0,.6-1.21c2.74-6.46-.48-14.4-3.08-20.79a52.14,52.14,0,0,1-2.19-6l2.91-.74a48.64,48.64,0,0,0,2.06,5.65c2.66,6.54,6.29,15.49,3.07,23.09l0,0h26.31a2.55,2.55,0,0,0,2.45-1.82A33.39,33.39,0,0,0,204,168C204.8,127.76,144.53,106.4,140.89,105.14Zm-8.79-1,.36-6.23h0v-.11l-1.18-.27a18,18,0,0,1-12-8.58,14.13,14.13,0,0,1-1.1-2.68L118,85.7l-.59-.29a4.32,4.32,0,0,1-2-1.82,3.21,3.21,0,0,1-.2-2.72,4.34,4.34,0,0,1,2.54-2.46l.59-.23.24-.6c1.06-2.66,4.42-7.94,9.74-9.52l-1.36,0a32.79,32.79,0,0,1,8.29-.75s.27,8.82.91,9.77c2.4,3.54,4.9,3.85,4.9,3.85,1.77-4.06,6.9-2,8,1.46,1.36,4.19-3.85,7.29-3.85,7.29A11.45,11.45,0,0,0,147,92.1,17.69,17.69,0,0,1,138.09,97l.29,7.22Z"/></g></g></svg>