<svg xmlns="http://www.w3.org/2000/svg" viewBox="0 0 145.66 120.71"><defs><style>.cls-1{fill:#fff;}</style></defs><g id="Layer_2" data-name="Layer 2"><g id="Layer_1-2" data-name="Layer 1"><path class="cls-1" d="M15.56,26.51H84.65a2.62,2.62,0,0,0,2.62-2.62V2.62A2.62,2.62,0,0,0,84.65,0H15.56A7.89,7.89,0,0,0,7.69,7.87V18.64A7.89,7.89,0,0,0,15.56,26.51Z"/><rect class="cls-1" x="93.98" width="6.06" height="26.51" rx="2.62"/><path class="cls-1" d="M118.09,0h-8.72a2.62,2.62,0,0,0-2.63,2.62V23.89a2.63,2.63,0,0,0,2.63,2.62h8.72A7.89,7.89,0,0,0,126,18.64V7.87A7.89,7.89,0,0,0,118.09,0Z"/><path class="cls-1" d="M7.69,44a7.89,7.89,0,0,0,7.87,7.87h97.71a2.63,2.63,0,0,0,2.63-2.62V36.68a2.62,2.62,0,0,0-2.63-2.62H15.56a7.89,7.89,0,0,0-7.87,7.86Z"/><path class="cls-1" d="M145.66,44v-2.1a7.89,7.89,0,0,0-7.86-7.86H125.22a2.62,2.62,0,0,0-2.62,2.62V49.27a2.63,2.63,0,0,0,2.62,2.62H137.8A7.89,7.89,0,0,0,145.66,44Z"/><path class="cls-1" d="M88.52,84.09V62a2.57,2.57,0,0,0-5.14,0V84.09a2.57,2.57,0,1,0,5.14,0Z"/><path class="cls-1" d="M138,78.79V67.3a7.89,7.89,0,0,0-7.87-7.86h-13.8A2.57,2.57,0,0,0,113.74,62V84.09a2.57,2.57,0,0,0,2.57,2.57h13.8A7.9,7.9,0,0,0,138,78.79Z"/><path class="cls-1" d="M0,67.3V78.79a7.9,7.9,0,0,0,7.87,7.87H74.11a2.57,2.57,0,0,0,2.57-2.57V62a2.57,2.57,0,0,0-2.57-2.56H7.87A7.89,7.89,0,0,0,0,67.3Z"/><rect class="cls-1" x="24.82" y="94.2" width="80.25" height="26.51" rx="2.62"/><path class="cls-1" d="M114.4,94.2a2.62,2.62,0,0,0-2.62,2.62v21.27a2.62,2.62,0,0,0,2.62,2.62h1.81a7.89,7.89,0,0,0,7.87-7.87V102.07a7.89,7.89,0,0,0-7.87-7.87Z"/><path class="cls-1" d="M13.68,94.2a7.89,7.89,0,0,0-7.86,7.87v10.77a7.89,7.89,0,0,0,7.86,7.87H15.5a2.62,2.62,0,0,0,2.62-2.62V96.82A2.63,2.63,0,0,0,15.5,94.2Z"/></g></g></svg>