<svg xmlns="http://www.w3.org/2000/svg" viewBox="0 0 153.49 158.93"><defs><style>.cls-1{fill:#fff;}</style></defs><g id="Layer_2" data-name="Layer 2"><g id="Layer_1-2" data-name="Layer 1"><path class="cls-1" d="M148.2,15.71H125.62v-6A9.67,9.67,0,0,0,116,0H35.89a8,8,0,0,0-8,8v7.7H4.39A4.38,4.38,0,0,0,0,20.1V44.71A26.74,26.74,0,0,0,26.74,71.45H29l.95,0a49,49,0,0,0,31,32.11v24.39H48.31a20.44,20.44,0,0,0-20.44,20.44v3.74a6.81,6.81,0,0,0,6.81,6.82h84.13a6.81,6.81,0,0,0,6.81-6.82v-3.74a20.44,20.44,0,0,0-20.44-20.44H92.57V103.54a49,49,0,0,0,31-32.11l.95,0h2.26a26.74,26.74,0,0,0,26.74-26.74V21A5.29,5.29,0,0,0,148.2,15.71ZM27.25,58.85A14.65,14.65,0,0,1,12.6,44.2V30.71a2.39,2.39,0,0,1,2.4-2.4H27.87v29c0,.52,0,1,0,1.55Zm82.86-17.52L97.46,50a2.23,2.23,0,0,0-.67,2.95l7.63,13.29a2.23,2.23,0,0,1-2.58,3.25L87.18,65a2.24,2.24,0,0,0-2.73,1.31L78.82,80.56a2.23,2.23,0,0,1-4.15,0L69,66.3A2.24,2.24,0,0,0,66.31,65L51.65,69.48a2.23,2.23,0,0,1-2.58-3.25L56.7,52.94A2.23,2.23,0,0,0,56,50L43.38,41.33a2.23,2.23,0,0,1,.92-4L59.46,35a2.23,2.23,0,0,0,1.89-2.37L60.23,17.31A2.24,2.24,0,0,1,64,15.5L75.23,25.91a2.23,2.23,0,0,0,3,0L89.52,15.5a2.24,2.24,0,0,1,3.74,1.81L92.14,32.59A2.23,2.23,0,0,0,94,35l15.15,2.32A2.23,2.23,0,0,1,110.11,41.33Zm30.78,2.87a14.65,14.65,0,0,1-14.65,14.65h-.66c0-.52,0-1,0-1.55v-29H138a2.9,2.9,0,0,1,2.9,2.9Z"/></g></g></svg>