<svg xmlns="http://www.w3.org/2000/svg" viewBox="0 0 193.02 141.05"><defs><style>.cls-1{fill:#fff;}</style></defs><g id="Layer_2" data-name="Layer 2"><g id="Layer_1-2" data-name="Layer 1"><path class="cls-1" d="M192.26,32.35c-22.5-6.48-75.81-15.89-81.65-16.91a1.07,1.07,0,0,0-.92.27c-23.81,22.47-6.15,59.1-23.16,74.49-14.17,12.82-16.6,22.52-17,25.45a1,1,0,0,0,.75,1.17L152.39,141a1,1,0,0,0,1.09-.31c1.79-2.05,8.31-10.77,11.57-32.49,3.71-24.76-.11-55.7,27.5-74A1.05,1.05,0,0,0,192.26,32.35ZM147.74,129a2.72,2.72,0,0,1-2.61,2.11,2.44,2.44,0,0,1-.8-.13L85,111.87a2.84,2.84,0,0,1-1.82-3.42,2.73,2.73,0,0,1,2.61-2.11,2.44,2.44,0,0,1,.8.13l59.36,19.07A2.84,2.84,0,0,1,147.74,129Zm7.48-16.41a2.73,2.73,0,0,1-2.63,2.16,2.65,2.65,0,0,1-.74-.11L95.43,97.73a2.81,2.81,0,0,1-1.88-3.38,2.71,2.71,0,0,1,2.62-2.16,2.78,2.78,0,0,1,.75.11l56.42,16.87A2.82,2.82,0,0,1,155.22,112.55ZM162,93.62a2.73,2.73,0,0,1-2.61,2.11,2.44,2.44,0,0,1-.8-.13L104.47,78.21a2.84,2.84,0,0,1-1.82-3.42,2.73,2.73,0,0,1,2.61-2.11,2.44,2.44,0,0,1,.8.13L160.18,90.2A2.84,2.84,0,0,1,162,93.62ZM164.16,74a2.71,2.71,0,0,1-2.63,2.16,2.62,2.62,0,0,1-.73-.1l-56.17-16.6a2.85,2.85,0,0,1-1.89-3.39,2.72,2.72,0,0,1,2.63-2.16,2.65,2.65,0,0,1,.74.11l56.16,16.6A2.83,2.83,0,0,1,164.16,74Zm2.91-18.75a2.72,2.72,0,0,1-2.63,2.2,2.37,2.37,0,0,1-.7-.1l-57-15.79a2.83,2.83,0,0,1-1.94-3.36,2.73,2.73,0,0,1,2.64-2.2,2.68,2.68,0,0,1,.69.1l57,15.79A2.82,2.82,0,0,1,167.07,55.24ZM174.27,40a2.75,2.75,0,0,1-2.65,2.25,2.8,2.8,0,0,1-.64-.08l-59-15a2.82,2.82,0,0,1-2-3.32,2.76,2.76,0,0,1,2.65-2.25,2.8,2.8,0,0,1,.64.08l59,15A2.83,2.83,0,0,1,174.27,40Z"/><path class="cls-1" d="M79.5,1.45A1.48,1.48,0,0,0,78.72.17a1.51,1.51,0,0,0-1.5.06L53.35,15.64l-.07.06-.26.19a1.39,1.39,0,0,0-.42.48l-.12.23,0,0L.17,114.76a1.47,1.47,0,0,0,.61,2l24.64,13.13a1.46,1.46,0,0,0,.7.18,1.23,1.23,0,0,0,.42-.07,1.48,1.48,0,0,0,.88-.71L79.7,31.15h0l.15-.28a1.51,1.51,0,0,0,.18-.72ZM24.6,123.59,6.46,113.93l4.31-8.09,18.14,9.66ZM32.83,111a1.81,1.81,0,0,1-1.74,1.6,1.7,1.7,0,0,1-.73-.17L13.2,104a2,2,0,0,1-1-2.19,1.81,1.81,0,0,1,1.74-1.6,1.66,1.66,0,0,1,.73.16l17.16,8.39A2.05,2.05,0,0,1,32.83,111Zm27-93.34,10.7-6.9,4,2.15.23,12.74Z"/></g></g></svg>