<svg xmlns="http://www.w3.org/2000/svg" viewBox="0 0 83.05 92.84"><defs><style>.cls-1{fill:#fff;}</style></defs><g id="Layer_2" data-name="Layer 2"><g id="Layer_1-2" data-name="Layer 1"><path class="cls-1" d="M49.48,46.11l-.11.13a11.51,11.51,0,0,1-16.27,0c-.16-.16-.3-.33-.44-.49C12.57,50.24,2.82,72,0,81v2.24a10.47,10.47,0,0,0,3,7.56c.71.49,1.46,1,2.24,1.48a6.3,6.3,0,0,0,2.55.54h5.09a1.92,1.92,0,0,0,1.92-1.92V64.76a1.69,1.69,0,0,1,1.69-1.68H65.89a1.58,1.58,0,0,1,1.58,1.58v25.5a2.68,2.68,0,0,0,2.68,2.68h5.24a6.52,6.52,0,0,0,2.07-.35,22.11,22.11,0,0,0,3.69-2.78,10.54,10.54,0,0,0,1.9-4.64C82.13,75.66,71.1,51.67,49.48,46.11Z"/><path class="cls-1" d="M32.38,45.45A11.48,11.48,0,0,1,30,40.74a3.64,3.64,0,0,1-2.86-1.58,3.69,3.69,0,0,1,0-4.19,3.63,3.63,0,0,1,2.18-1.46,5.35,5.35,0,0,1,1.75-.78l0,0a11.43,11.43,0,0,1,2-2.74,11.11,11.11,0,0,1,2-1.61c2.41,2.55,7.93,4.19,15.52,3.16a10,10,0,0,1,.72,1.22,5.54,5.54,0,0,1,1.76.79A3.64,3.64,0,0,1,55.31,35a3.71,3.71,0,0,1,0,4.16,3.67,3.67,0,0,1-2.86,1.57A11.38,11.38,0,0,1,50,45.57c7.64-3.32,13.42-11.39,14.55-16.2,1.27-5.42-1.28-5.26-1.28-5.26.16-5.75-3.11-5.28-3.11-5.28S61,9.43,58.61,7a5.44,5.44,0,0,0-5.47-1.26S54.62.33,49,0s-8.3,5-8.3,5S39-.46,33.56,3.21s-6.15,13.41-6.15,13.41S23.35,12,19.84,16s.48,9.89.48,9.89-5.43,0-4.25,6.78C17.16,38.89,26.11,43.19,32.38,45.45Z"/></g></g></svg>