<svg xmlns="http://www.w3.org/2000/svg" viewBox="0 0 142.5 159.3"><defs><style>.cls-1{fill:#fff;}</style></defs><g id="Layer_2" data-name="Layer 2"><g id="Layer_1-2" data-name="Layer 1"><path class="cls-1" d="M84.9,79.12l-.19.21a19.74,19.74,0,0,1-27.92,0c-.27-.26-.51-.55-.75-.83C21.57,86.2,4.84,123.56,0,139v3.85a17.91,17.91,0,0,0,5.17,12.95c1.21.86,2.5,1.7,3.83,2.56a11.09,11.09,0,0,0,4.38.92h8.74a3.3,3.3,0,0,0,3.3-3.3V111.12a2.89,2.89,0,0,1,2.89-2.89h84.75a2.72,2.72,0,0,1,2.71,2.71v43.77a4.59,4.59,0,0,0,4.59,4.59h9a11.05,11.05,0,0,0,3.54-.6,37.54,37.54,0,0,0,6.33-4.77,17.93,17.93,0,0,0,3.27-8C140.92,129.83,122,88.67,84.9,79.12Z"/><path class="cls-1" d="M55.56,78a19.63,19.63,0,0,1-4-8.08,6.25,6.25,0,0,1-4.92-2.71,6.33,6.33,0,0,1,0-7.18A6.21,6.21,0,0,1,50.4,57.5a9.24,9.24,0,0,1,3-1.34.1.1,0,0,0,0,0,19.37,19.37,0,0,1,3.44-4.7,19.91,19.91,0,0,1,3.5-2.77C64.43,53,73.9,55.83,86.92,54.07a20.24,20.24,0,0,1,1.25,2.09,9.12,9.12,0,0,1,3,1.36,6.13,6.13,0,0,1,3.72,2.56,6.32,6.32,0,0,1,0,7.13,6.24,6.24,0,0,1-4.91,2.69,19.56,19.56,0,0,1-4.2,8.29c13.1-5.7,23-19.53,25-27.79,2.19-9.31-2.19-9-2.19-9,.28-9.86-5.33-9-5.33-9s1.5-16.14-2.61-20.25a9.32,9.32,0,0,0-9.39-2.16S93.73.57,84.15,0,69.91,8.51,69.91,8.51s-3-9.31-12.32-3S47,28.52,47,28.52s-7-8-13-1.12.82,17,.82,17-9.3,0-7.29,11.62C29.44,66.73,44.81,74.11,55.56,78Z"/><path class="cls-1" d="M71.25,127.73A6.79,6.79,0,1,0,78,134.51,6.78,6.78,0,0,0,71.25,127.73Z"/></g></g></svg>