<svg xmlns="http://www.w3.org/2000/svg" viewBox="0 0 142.5 159.3"><defs><style>.cls-1{fill:#fff;}</style></defs><g id="Layer_2" data-name="Layer 2"><g id="Layer_1-2" data-name="Layer 1"><path class="cls-1" d="M84.9,79.12l-.19.21a19.74,19.74,0,0,1-27.92,0c-.27-.26-.51-.55-.75-.83C21.57,86.2,4.84,123.56,0,139v3.85a17.91,17.91,0,0,0,5.17,12.95c1.21.86,2.5,1.7,3.83,2.56a11.09,11.09,0,0,0,4.38.92h8.74a3.3,3.3,0,0,0,3.3-3.3V111.12a2.89,2.89,0,0,1,2.89-2.89h84.75a2.72,2.72,0,0,1,2.71,2.71v43.77a4.59,4.59,0,0,0,4.59,4.59h9a11.05,11.05,0,0,0,3.54-.6,37.54,37.54,0,0,0,6.33-4.77,17.81,17.81,0,0,0,3.27-8C140.92,129.83,122,88.67,84.9,79.12Z"/><path class="cls-1" d="M55.56,78a19.63,19.63,0,0,1-4-8.08,6.25,6.25,0,0,1-4.92-2.71,6.33,6.33,0,0,1,0-7.18,6.21,6.21,0,0,1,3.93-2.56,1.41,1.41,0,0,0,.16.75l4.71,9c0,.22-.07.46-.1.71l0,.19a3.43,3.43,0,0,0,0,.56A7.5,7.5,0,0,0,69.6,71.8h2.49A7.5,7.5,0,0,0,86.4,68.65a2.69,2.69,0,0,0,0-.4v-.12a9.25,9.25,0,0,0-.13-.94l4.71-9a1.46,1.46,0,0,0,.17-.71,6.22,6.22,0,0,1,3.78,2.59,6.32,6.32,0,0,1,0,7.13,6.24,6.24,0,0,1-4.91,2.69,19.45,19.45,0,0,1-4.2,8.29c13.1-5.7,23-19.53,25-27.79,2.19-9.31-2.19-9-2.19-9,.28-9.86-5.33-9-5.33-9s1.5-16.14-2.61-20.25a9.32,9.32,0,0,0-9.39-2.16S93.73.57,84.15,0,69.91,8.51,69.91,8.51s-3-9.31-12.32-3S47,28.52,47,28.52s-7-8-13-1.12.82,17,.82,17-9.3,0-7.29,11.62C29.44,66.73,44.81,74.11,55.56,78ZM83,68.65a4.1,4.1,0,1,1-8.2-.06,4.16,4.16,0,0,1,4-4A4.11,4.11,0,0,1,83,68.65Zm-16.09,0a4.1,4.1,0,1,1-8.2-.06,4.16,4.16,0,0,1,4-4A4.11,4.11,0,0,1,66.9,68.65ZM56.79,51.41a19.91,19.91,0,0,1,3.5-2.77C64.43,53,73.9,55.83,86.92,54.07a19.64,19.64,0,0,1,1.28,2.15,2.14,2.14,0,0,0-.28.39l-.09.18-.07.13-3.44,6.56-.24-.24a7.51,7.51,0,0,0-12.71,5.15H70.31a7.52,7.52,0,0,0-7.51-7.25,7.45,7.45,0,0,0-5.43,2.34l-3.44-6.55-.16-.32-.07-.13-.05,0a1.57,1.57,0,0,0-.3-.33A19.37,19.37,0,0,1,56.79,51.41Z"/><circle class="cls-1" cx="71.25" cy="134.51" r="6.79" transform="translate(-74.25 89.78) rotate(-45)"/></g></g></svg>