<svg xmlns="http://www.w3.org/2000/svg" viewBox="0 0 155.3 180.19"><defs><style>.cls-1{fill:#fff;}</style></defs><g id="Layer_2" data-name="Layer 2"><g id="Layer_1-2" data-name="Layer 1"><g id="Layer_2-2" data-name="Layer 2"><g id="Layer_1-2-2" data-name="Layer 1-2"><path class="cls-1" d="M62.3,33.69a6.5,6.5,0,0,0-3-.82,5.05,5.05,0,0,0-2.34.57,4.66,4.66,0,0,0-2.27,2.8,8.15,8.15,0,0,0,1.22,6.26A10.09,10.09,0,0,0,59.46,46a6.56,6.56,0,0,0,3,.82,5,5,0,0,0,2.34-.57,4.81,4.81,0,0,0,2.49-4.46,8.93,8.93,0,0,0-1.44-4.64A9.82,9.82,0,0,0,62.3,33.69Zm1.12,10.55a2,2,0,0,1-.93.23A3.49,3.49,0,0,1,60.86,44a7.08,7.08,0,0,1-2.56-2.51c-1.42-2.27-1.42-4.72,0-5.47a1.9,1.9,0,0,1,.93-.22,3.43,3.43,0,0,1,1.63.47,7,7,0,0,1,2.56,2.51,6.36,6.36,0,0,1,1.06,3.3A2.27,2.27,0,0,1,63.42,44.24Z"/><path class="cls-1" d="M78,42.16a6.38,6.38,0,0,0-3-.81,5,5,0,0,0-2.34.56,4.72,4.72,0,0,0-2.27,2.83A8.09,8.09,0,0,0,71.58,51a10,10,0,0,0,3.6,3.47,6.46,6.46,0,0,0,3,.82,4.93,4.93,0,0,0,2.33-.57A4.82,4.82,0,0,0,83,50.27a8.86,8.86,0,0,0-1.44-4.63A10,10,0,0,0,78,42.16Zm1.12,10.58a1.91,1.91,0,0,1-.94.22,3.45,3.45,0,0,1-1.62-.47A7.08,7.08,0,0,1,74,50c-1.42-2.26-1.42-4.72,0-5.47a2,2,0,0,1,.93-.22,3.43,3.43,0,0,1,1.63.47,7.11,7.11,0,0,1,2.6,2.48,6.36,6.36,0,0,1,1.06,3.3,2.28,2.28,0,0,1-1.06,2.2Z"/><path class="cls-1" d="M150.63,137.45a16,16,0,0,0-5.18-3.21l-.2-.26a54.74,54.74,0,0,0-8.13-27.19c-.37-.57-.74-1.13-1.12-1.68h0a36.13,36.13,0,0,0-15.49-12.55V67.45h0l-12.93-7a1.48,1.48,0,0,1-.68-2,2,2,0,0,1,.2-.31,13.53,13.53,0,0,0,1.44-2c1.83-2.93,2.49-6.14,1.78-8.59a5.21,5.21,0,0,0-2.57-3.25,5,5,0,0,0-1-.38c-1.88-7-6.58-13.84-12.09-16.81h0L79,18.62c-6.81-3.66-18.71-3.2-26.58,1h0a16.56,16.56,0,0,0-4,2.9c-2,1.76-3.21,4.81-3.21,8.87h0a26.92,26.92,0,0,0,2.23,10.24L33.35,49.24h0v4C26,46.92,22,36.11,21.55,25.13l.2-.3A15.72,15.72,0,0,0,27,21.6,14,14,0,0,0,28.07,1.83a11.56,11.56,0,0,0-1-1A3,3,0,0,0,23.71.29,2.54,2.54,0,0,0,22.4,3.65a2.5,2.5,0,0,0,.61.86,9,9,0,0,1,.65,12.71,6.65,6.65,0,0,1-.65.65,10.08,10.08,0,0,1-2.15,1.52,6.66,6.66,0,0,0-.62-.69,6.57,6.57,0,0,0-8.81,0,5.86,5.86,0,0,0-.62.69,10.34,10.34,0,0,1-2.15-1.52A9,9,0,0,1,8,5.16c.16-.18.33-.36.51-.53A2.62,2.62,0,0,0,9,1.24,3,3,0,0,0,4.82.67L4.64.81a14,14,0,0,0-1,19.77,13.13,13.13,0,0,0,1,1.06,16.12,16.12,0,0,0,5.19,3.21c.12.16.24.33.37.49.39,10.58,3.65,20.91,9.08,28.64A36.43,36.43,0,0,0,33.34,66.07v34.44c0,12.8,5.57,27,13.86,37.48a22.54,22.54,0,0,0-.56,5.11c0,12.71,9.32,27.68,21.22,34.09a22.87,22.87,0,0,0,10.72,3,15.13,15.13,0,0,0,5-.84h0l.29-.11.18-.07a89.78,89.78,0,0,0,13.21-6.93h0c3-2.08,4.9-6,4.9-11.29a33,33,0,0,0-3.82-14.51c11.59-9.33,20.5-26.1,21.9-41.7a27.84,27.84,0,0,1,7.78,8.5A44.55,44.55,0,0,1,133.74,134l-.21.3a16.17,16.17,0,0,0-5.26,3.24,14,14,0,0,0-1,19.77,13.09,13.09,0,0,0,1,1,3,3,0,0,0,3.37.55,2.56,2.56,0,0,0,1.31-3.38,2.52,2.52,0,0,0-.61-.84,9,9,0,0,1-.64-12.71c.2-.23.42-.44.64-.65a10.61,10.61,0,0,1,2.14-1.51,8.07,8.07,0,0,0,.62.68,6.56,6.56,0,0,0,8.82,0,6.67,6.67,0,0,0,.62-.68,10.08,10.08,0,0,1,2.14,1.51,9,9,0,0,1,.65,12.71,6.5,6.5,0,0,1-.52.53,2.66,2.66,0,0,0-.5,3.43,3,3,0,0,0,4.21.58l.17-.15a14,14,0,0,0,1.11-19.77A14.4,14.4,0,0,0,150.63,137.45ZM41.16,74.62a8.24,8.24,0,0,1-3-6.13c0-2.26,1.33-3.16,3-2a8.21,8.21,0,0,1,3,6.13C44.14,74.84,42.81,75.75,41.16,74.62ZM51,81.38a8.28,8.28,0,0,1-3-6.14c0-2.26,1.34-3.16,3-2a8.26,8.26,0,0,1,3,6.13C54,81.6,52.62,82.51,51,81.38Zm9.81,6.76a8.28,8.28,0,0,1-3-6.13c0-2.26,1.34-3.16,3-2a8.21,8.21,0,0,1,3,6.13c-.06,2.22-1.39,3.1-3,2Zm27.62,19L70.68,94.88c-1.42-1-2.57-3.6-2.57-5.85s1.15-3.28,2.57-2.31L88.41,98.93c1.42,1,2.56,3.59,2.56,5.85s-1.14,3.28-2.56,2.31ZM81.87,64.8,61.27,53.72c-6.06-3.26-11-12-11-19.53s4.92-11,11-7.72l20.6,11.07c6.06,3.26,11,12,11,19.53s-5,10.94-11,7.68Z"/><path class="cls-1" d="M43,101h0l.22.13"/></g></g></g></g></svg>