<svg xmlns="http://www.w3.org/2000/svg" viewBox="0 0 181.1 164.92"><defs><style>.cls-1{fill:#fff;}</style></defs><g id="Layer_2" data-name="Layer 2"><g id="Layer_1-2" data-name="Layer 1"><path class="cls-1" d="M88.48,58.54l0,0-.08,0-.11,0h-.52l-1-.05-.38,0-.13,0-.44-.05c-.33,0-.66-.1-1-.17l-.33-.08-.13,0h0l-.61-.16c-.25-.07-.49-.15-.73-.24h0l-.19-.06-.38-.15a13.24,13.24,0,0,1-1.61-.76A9.89,9.89,0,0,1,75.5,48V45.88c0-.22,0-.43,0-.65a9.92,9.92,0,0,1,5-7.67,14.8,14.8,0,0,1,7.53-2h0a14.77,14.77,0,0,1,7.27,1.82,10.17,10.17,0,0,1,5,6.23,2.5,2.5,0,0,0,1.08,1.48c11.88,7.71,29.2,20,32.89,23.1a21.67,21.67,0,0,1,5.74,7.7,2.61,2.61,0,0,0,3.73,1.17l36-21.66a2.62,2.62,0,0,0-.06-4.53L90.1.34a2.62,2.62,0,0,0-2.64,0L1.27,52.16a2.62,2.62,0,0,0,.06,4.53L91,107.26a2.62,2.62,0,0,0,2.64,0L123,89.6a2.59,2.59,0,0,0,1.26-2.22h0c0-2.06-.77-4.39-1.73-5.19C119.63,79.75,100.05,65.81,88.48,58.54ZM146,55.32c0,.13,0,.27,0,.4v0Z"/><path class="cls-1" d="M142.69,84.15a.69.69,0,0,0-.32.64c.11,1.1.14,2,.14,2.58s0,1.56-.06,3.34v.06c0,.59.05,1,.05,1.31,0,1.1-.15,6.88-.36,14.87-.06,2.28-.12,4.68-.19,7.11a.67.67,0,0,0,1.29.27c3.52-8.53,3.33-19,2.87-31.08a.67.67,0,0,0-1-.55Z"/><path class="cls-1" d="M43.7,87a2.2,2.2,0,0,0-3.28,1.9l-.1,17.2c0,8.08,5.36,16.18,16.16,22.26,14.22,7.79,31.09,9.81,47.06,8.12a100.76,100.76,0,0,0,16.63-3.62,2.18,2.18,0,0,0,1.42-1.46,1.18,1.18,0,0,1,.07-.2A8.79,8.79,0,0,1,122.8,129a2.31,2.31,0,0,0,.44-1.26c.16-7.34.42-17.43.64-25.83v-.21l.06-2.31a2.19,2.19,0,0,0-3.32-1.94L93.39,113.78a2.23,2.23,0,0,1-2.21,0Z"/><path class="cls-1" d="M142.81,149.16c-.22-1.21-.5-2.36-.77-3.48v0c-.08-.37-.17-.75-.26-1.12a20.12,20.12,0,0,0-3.86-8A2.71,2.71,0,0,0,138,136a3.45,3.45,0,0,0-2-3.65c.13-7.14.45-19.63.72-29.79.2-7.69.36-13.74.36-14.82,0-1.6-.3-9.83-6.19-14.82-3.59-3-23.61-17.25-35.69-24.83V46.35h0v0h0a4.19,4.19,0,0,0-2.44-3.55,9.22,9.22,0,0,0-4.48-1.08h0a9,9,0,0,0-4.6,1.16,4.18,4.18,0,0,0-2.26,3.49h0v2.14a4.26,4.26,0,0,0,2.44,3.65,7.64,7.64,0,0,0,.91.43l.13.05.15,0h0l.09,0,.38.13.33.08.07,0,.16,0,.11,0c.21.05.42.08.63.11l.22,0h.22l.17,0c.21,0,.41,0,.62,0h.42V51.68l0,1.51h.18l.71,0,.13,0,.15,0h.14l.14,0c11.12,6.82,32.82,22.16,36.41,25.2,2.58,2.18,3.74,6.35,3.74,9.52,0,1-.16,7.17-.35,14.33v.31c-.25,9.72-.56,21.67-.7,29a3.46,3.46,0,0,0-1.35,5.17A31.47,31.47,0,0,0,126,148.34a68.74,68.74,0,0,0,1.84,13.56,3.44,3.44,0,0,0,3.38,2.69,3.3,3.3,0,0,0,.77-.08,3.78,3.78,0,0,0,.67-.23,3.38,3.38,0,0,0,1.71.47,3.63,3.63,0,0,0,1-.14,5.27,5.27,0,0,0,.51-.19,3.37,3.37,0,0,0,1.77.5,3.56,3.56,0,0,0,1.12-.19,3.4,3.4,0,0,0,1.1-.62l.36,0a3.55,3.55,0,0,0,1.25-.23,3.46,3.46,0,0,0,1.76-1.52,3.51,3.51,0,0,0,1-.47,3.48,3.48,0,0,0,.92-4.81C144.54,156.23,143.52,153.15,142.81,149.16Z"/></g></g></svg>