<svg xmlns="http://www.w3.org/2000/svg" viewBox="0 0 204.72 168.41"><defs><style>.cls-1{fill:#fff;}</style></defs><g id="Layer_2" data-name="Layer 2"><g id="Layer_1-2" data-name="Layer 1"><path class="cls-1" d="M161.89,53.92A9.59,9.59,0,0,0,153,48.07a10.76,10.76,0,0,0-1.71.14,17.43,17.43,0,0,0-10.72-4.54c-.28,0-.57,0-.85,0-5,0-8.81,3.14-10,8.18a414.68,414.68,0,0,0-9.09,54.46c-.82,8.53-.78,17.42,5,24.62a19.65,19.65,0,0,0,15.73,7.33,24.12,24.12,0,0,0,3.38-.24l2.05,27.38a2.36,2.36,0,0,0,2.33,2.16h.31a2.32,2.32,0,0,0,2-2.49l-2.09-28c5-1.26,11.76-3.41,17-7.62,6.1-4.91,8.73-11.81,8.26-21.72C173.72,90.15,169.47,72.06,161.89,53.92Z"/><path class="cls-1" d="M201.45,91.06a4.94,4.94,0,0,0-5-3.74,6.61,6.61,0,0,0-5.7,3.23,50.5,50.5,0,0,0-2.69,5.76,5.7,5.7,0,0,0-2.45,3.66c-.37,1.76-.78,3.56-1.22,5.46-1.72,7.44-3.68,15.87-2.9,23.42.49,4.73,3.29,8.79,7,10.3l-3.8,26.3a2.34,2.34,0,0,0,1.95,2.64l.36,0a2.34,2.34,0,0,0,2.31-2l3.83-26.43a10.68,10.68,0,0,0,2-.51c8.32-3,9-14.22,9.36-19A87.77,87.77,0,0,0,201.45,91.06Z"/><path class="cls-1" d="M98.91,129.24,81.78,96.74c-.44-.83-1.29-1.44-8.38-1.89-4-.26-9.41-.4-15.11-.4s-11.07.14-15.11.4c-7.09.45-8,1.06-8.38,1.89l-17.13,32.5L.54,161.75a4.73,4.73,0,0,0,.13,4.61,4.1,4.1,0,0,0,3.53,2H112.38a4.12,4.12,0,0,0,3.53-2,4.73,4.73,0,0,0,.13-4.61ZM39.6,101.08a1.16,1.16,0,0,1,2.14,0l15.58,29.55,15.57,29.55a1.75,1.75,0,0,1,0,1.69,1.21,1.21,0,0,1-1,.63H9.53a1.23,1.23,0,0,1-1-.63,1.75,1.75,0,0,1-.05-1.69L24,130.63Z"/><circle class="cls-1" cx="65.42" cy="36.27" r="17.66" transform="translate(6.88 82.83) rotate(-67.5)"/><path class="cls-1" d="M88.36,36.27A2.68,2.68,0,0,0,91,38.94h8a2.67,2.67,0,1,0,0-5.34H91A2.67,2.67,0,0,0,88.36,36.27Z"/><path class="cls-1" d="M31.82,38.94h8a2.67,2.67,0,0,0,0-5.34h-8a2.67,2.67,0,0,0,0,5.34Z"/><path class="cls-1" d="M65.42,13.32a2.67,2.67,0,0,0,2.67-2.67v-8a2.67,2.67,0,1,0-5.34,0v8A2.66,2.66,0,0,0,65.42,13.32Z"/><path class="cls-1" d="M62.75,61.88v8a2.67,2.67,0,1,0,5.34,0v-8a2.67,2.67,0,1,0-5.34,0Z"/><path class="cls-1" d="M83.25,20.56a2.66,2.66,0,0,0,1.92-.81L90.73,14A2.67,2.67,0,1,0,86.9,10.3L81.34,16a2.67,2.67,0,0,0,1.91,4.53Z"/><path class="cls-1" d="M45.66,52.79,40.1,58.52A2.68,2.68,0,0,0,42,63.05a2.63,2.63,0,0,0,1.91-.81l5.57-5.73a2.67,2.67,0,1,0-3.84-3.72Z"/><path class="cls-1" d="M45.66,19.75a2.67,2.67,0,0,0,1.92.81A2.68,2.68,0,0,0,49.5,16L43.93,10.3A2.67,2.67,0,1,0,40.1,14Z"/><path class="cls-1" d="M85.17,52.79a2.67,2.67,0,1,0-3.83,3.72l5.56,5.73a2.67,2.67,0,0,0,3.83-3.72Z"/></g></g></svg>